<svg xmlns="http://www.w3.org/2000/svg" width="1791.999" height="1791.999" fill-rule="evenodd" clip-rule="evenodd" image-rendering="optimizeQuality" shape-rendering="geometricPrecision" text-rendering="geometricPrecision" viewBox="0 0 47413.32 47413.32" id="delivery-person-holding-boxes">
  <rect width="47413.32" height="47413.32" fill="none"></rect>
  <polygon fill="#bdbdbd" fill-rule="nonzero" points="30453.16 15546.98 30087.92 15405.11 29608.17 15639.32 29627.88 15933.2 30105.57 16559.14 30924.17 16159.47"></polygon>
  <path fill="#132e42" fill-rule="nonzero" d="M34390.44 20491.86l-3083.27 1505.05c-174.78,85.23 -385.5,12.76 -470.73,-162.01l-2216.94 -4540.47c-85.23,-174.77 -12.76,-385.49 162.02,-470.87l3082.73 -1505.05c174.63,-85.38 385.35,-12.76 470.87,161.98l2216.36 4540.35c85.63,174.78 12.76,385.64 -161.04,471.02z"></path>
  <polygon fill="#e7f6fd" fill-rule="nonzero" points="34283 20190.61 31135.15 21727.89 28887.69 17124.66 32036.23 15587.39"></polygon>
  <polygon fill="#d9d9d9" fill-rule="nonzero" points="30942.62 16150.45 30103.75 16560.08 29889.41 16812.73 30030.88 17102.88 31396.28 16436.15 31254.7 16146.28"></polygon>
  <polygon fill="#d9d9d9" fill-rule="nonzero" points="30442.47 15061.4 29960.07 15296.84 29864.55 15710.67 30105.67 16558.99 30928.88 16157.23 30679.97 15293.25"></polygon>
  <polygon fill="#a5dff9" fill-rule="nonzero" points="32184.48 16796.93 29750.33 17985.48 29689.38 17860.54 32123.42 16671.98"></polygon>
  <polygon fill="#a5dff9" fill-rule="nonzero" points="32471.41 17384.66 30037.11 18573.11 29976.31 18448.31 32410.49 17259.86"></polygon>
  <polygon fill="#a5dff9" fill-rule="nonzero" points="32741.85 17938.56 30307.66 19126.97 30246.71 19002.31 32680.9 17813.75"></polygon>
  <polygon fill="#a5dff9" fill-rule="nonzero" points="33027.55 18523.83 30593.36 19712.24 30532.41 19587.29 32966.6 18398.88"></polygon>
  <polygon fill="#a5dff9" fill-rule="nonzero" points="33279.07 19038.69 30844.74 20227.25 30783.82 20102.3 33217.98 18913.75"></polygon>
  <polygon fill="#a5dff9" fill-rule="nonzero" points="33576.15 19647.27 31141.96 20835.68 31080.9 20710.77 33514.8 19522.47"></polygon>
  <polygon fill="#ff5956" fill-rule="nonzero" points="31535.25 16720.57 29873.17 17531.97 29812.22 17407.17 31474.15 16595.77"></polygon>
  <polygon fill="#ff5956" fill-rule="nonzero" points="33794.77 19926.99 32132.84 20738.38 32071.89 20613.58 33733.28 19802.18"></polygon>
  <polygon fill="#ff5956" fill-rule="nonzero" points="33464.83 19250.39 32364.25 19787.62 32303.3 19662.67 33403.59 19125.45"></polygon>
  <path fill="#1e7dac" fill-rule="nonzero" d="M31288.43 20239.06l488.78 1247.85 3891.62 -4101.67c0,0 -4487.84,-5730.72 -5012.6,-5730.72l-967.14 537.12c-126.87,34.68 -120.35,1584.74 765.73,2492.74 1226.18,1256.72 2827.59,2700.86 2827.59,2700.86l-1993.98 2853.82z"></path>
  <path fill="#815932" fill-rule="nonzero" d="M31037.85 20365.1l-646.48 588.32 0 2195.52c0,0 770.74,-362.84 956.75,-751.82 307.47,-643.29 213.76,-1443.7 213.76,-1443.7l-524.03 -588.32z"></path>
  <polygon fill="#155f84" fill-rule="nonzero" points="30771.61 20340.67 31601.6 21701.65 32273.19 21169.97 31477.63 19785.55"></polygon>
  <path fill="#664624" fill-rule="nonzero" d="M25816.63 45541.7l0 -1343.87 -2147.95 0c0,0 -1675.95,-131.33 -1917.76,262.07 -138.69,225.58 -86.36,1081.8 -86.36,1081.8l4152.07 0z"></path>
  <polygon fill="#9d764b" fill-rule="nonzero" points="21653.05 45535.18 25822.46 45535.18 25822.46 45194.36 21653.05 45194.36"></polygon>
  <path fill="#664624" fill-rule="nonzero" d="M27590.31 45541.7l0 -1343.87 2148.06 0c0,0 1675.81,-131.33 1917.77,262.07 138.82,225.58 86.35,1081.8 86.35,1081.8l-4152.18 0z"></path>
  <polygon fill="#9d764b" fill-rule="nonzero" points="27584.48 45535.18 31754.16 45535.18 31754.16 45194.36 27584.48 45194.36"></polygon>
  <path fill="#132e42" fill-rule="nonzero" d="M23005.98 23429.39c0,0 -187.68,4756.18 -187.68,6119.8 0,1363.58 559.59,14652.09 559.59,14652.09l2438.46 0 783.64 -15901.89 216.95 0 773.93 15901.89 2438.35 0c0,0 558.61,-13186.89 558.61,-14591.17 0,-1404.28 -186.74,-6180.72 -186.74,-6180.72l-7395.11 0z"></path>
  <path fill="#fff" fill-rule="nonzero" d="M28115.43 14754.07l-2731.37 0 0 -3182.13c0,0 465.58,671.48 1312.82,671.48 847.2,0 1418.55,-795.6 1418.55,-795.6l0 3306.25z"></path>
  <polygon fill="#664624" fill-rule="nonzero" points="30406.52 23429.39 23003.48 23429.39 22970.18 24368.04 30436.63 24368.04"></polygon>
  <polygon fill="#132e42" fill-rule="nonzero" points="28329.78 24368.04 28661.93 24368.04 28661.93 23429.35 28329.78 23429.35"></polygon>
  <polygon fill="#132e42" fill-rule="nonzero" points="24755.63 24368.04 25087.6 24368.04 25087.6 23429.35 24755.63 23429.35"></polygon>
  <path fill-rule="nonzero" d="M29360.92 5773.78c0,1668.59 -1184.68,3020.69 -2646.14,3020.69 -1461.5,0 -2646.29,-1352.1 -2646.29,-3020.69 0,-1667.22 1184.79,-3019.28 2646.29,-3019.28 1461.46,0 2646.14,1352.06 2646.14,3019.28z"></path>
  <path fill="#664624" fill-rule="nonzero" d="M26713.8 12393.88c1394.42,0 1014.47,-692.83 1213.81,-1099.02l-317.04 -1972.88 -1798.65 0c0,0 -257.94,1516.18 -317.91,1978.43 146.58,433.8 -174.63,1093.47 1219.79,1093.47z"></path>
  <path fill="#815932" fill-rule="nonzero" d="M29184.62 6538.68c0,1900.41 -434.09,3938.27 -2473.47,3938.27 -2039.23,0 -2473.32,-2037.86 -2473.32,-3938.27 0,-1899.03 1074.34,-2694.48 2440.42,-2694.48 1365.98,0 2506.37,795.45 2506.37,2694.48z"></path>
  <path fill="#815932" fill-rule="nonzero" d="M24859.34 7185.56c0 390.1-277.36 705.18-619.99 705.18-342.3 0-619.66-315.08-619.66-705.18 0-390.06 277.36-706.6 619.66-706.6 342.63 0 619.99 316.54 619.99 706.6zM29831.94 7185.56c0 390.1-277.37 705.18-619.7 705.18-342.59 0-619.96-315.08-619.96-705.18 0-390.06 277.37-706.6 619.96-706.6 342.33 0 619.7 316.54 619.7 706.6z"></path>
  <path fill="#9d744b" fill-rule="nonzero" d="m26072.32 7059.23-1189.24 0c-181.88 0-330.96-148.53-330.96-330.37l0-498.38c0-181.84 149.08-330.38 330.96-330.38l1189.24 0c182.13 0 331.07 148.54 331.07 330.38l0 498.38c0 181.84-148.94 330.37-331.07 330.37zM28539.27 7059.23l-1189.14 0c-181.98 0-330.92-148.53-330.92-330.37l0-498.38c0-181.84 148.94-330.38 330.92-330.38l1189.14 0c181.98 0 331.06 148.54 331.06 330.38l0 498.38c0 181.84-149.08 330.37-331.06 330.37z"></path>
  <path fill-rule="nonzero" d="M24883.62 5993.12c-131.47 0-238.33 106.87-238.33 238.77l0 495.59c0 131.87 106.86 238.73 238.33 238.73l1188.41 0c131.33 0 238.23-106.86 238.23-238.73l0-495.59c0-131.9-106.9-238.77-238.23-238.77l-1188.41 0zm1188.41 1159.14-1188.41 0c-234.06 0-424.63-190.18-424.63-424.78l0-495.59c0-234.6 190.57-424.81 424.63-424.81l1188.41 0c234.06 0 424.38 190.21 424.38 424.81l0 495.59c0 234.6-190.32 424.78-424.38 424.78zM27350.57 5993.12c-131.47 0-238.37 106.87-238.37 238.77l0 495.59c0 131.87 106.9 238.73 238.37 238.73l1188.41 0c131.32 0 238.37-106.86 238.37-238.73l0-495.59c0-131.9-107.05-238.77-238.37-238.77l-1188.41 0zm1188.41 1159.14-1188.41 0c-234.21 0-424.64-190.18-424.64-424.78l0-495.59c0-234.6 190.43-424.81 424.64-424.81l1188.41 0c234.06 0 424.38 190.21 424.38 424.81l0 495.59c0 234.6-190.32 424.78-424.38 424.78z"></path>
  <polygon fill-rule="nonzero" points="26496.41 6501.17 27019.03 6501.17 27019.03 6315.02 26496.41 6315.02"></polygon>
  <polygon fill-rule="nonzero" points="29292.21 6505.34 28854.79 6524.8 28886.03 6341.55 29312.9 6330.46"></polygon>
  <polygon fill-rule="nonzero" points="24155.68 6505.34 24593.21 6524.8 24561.83 6341.55 24116.65 6330.46"></polygon>
  <path fill-rule="nonzero" d="M25674.07 6453.99c0 97.16-78.71 176.3-175.9 176.3-97.19 0-176-79.14-176-176.3 0-97.19 78.81-176.29 176-176.29 97.19 0 175.9 79.1 175.9 176.29zM28120.58 6453.99c0 97.16-78.71 176.3-175.86 176.3-97.19 0-175.9-79.14-175.9-176.3 0-97.19 78.71-176.29 175.9-176.29 97.15 0 175.86 79.1 175.86 176.29zM27605.86 9173.99c0 290.69-237.79 528.49-528.49 528.49l-702.28 0c-290.7 0-528.49-237.8-528.49-528.49l0-480.88c0-290.11 528.49-527.51 528.49-527.51l702.28 0c0 0 528.49 237.4 528.49 527.51l0 480.88zm-438.95-1313.76-881.51 0c0 0-837.74 377.56-837.74 838.46l0 940.62c0 460.73 377.16 837.64 837.74 837.64l881.51 0c460.87 0 837.89-376.91 837.89-837.64l0-940.62c0-460.9-837.89-838.46-837.89-838.46z"></path>
  <path fill="#fff" fill-rule="nonzero" d="M27383.04 8554.32c0,0 -295.27,480.3 -659.53,480.3 -363.97,0 -659.38,-480.3 -659.38,-480.3l1318.91 0z"></path>
  <path fill="#1e7dac" fill-rule="nonzero" d="M26712.57 4249.55c1207.14,0 1525.17,628.87 2631.28,1427.07 111.9,-302.65 108.13,-2164.18 -398.14,-2670.89 -507.51,-509.46 -1759.92,-948.12 -2233.14,-948.12 -473.27,0 -1754.95,452.54 -2264.85,980.05 -487.51,503.92 -478.34,2330.76 -366.47,2633.38 964.1,-824.58 1424.13,-1421.49 2631.32,-1421.49z"></path>
  <path fill="#18658c" fill-rule="nonzero" d="M26720.47 4124.6c-3.19,0 -6.67,0 -9.86,1.42 -3.33,-1.42 -6.52,-1.42 -9.71,-1.42 -1450.23,0 -2045.9,860.68 -2626.03,1546.44 1045.02,297.08 1287.67,-1291 2598.27,-1309.04 0,0 24.97,0 37.47,-1.38 12.65,1.38 37.62,1.38 37.62,1.38 1310.6,18.04 1553.25,1606.12 2598.27,1309.04 -580.28,-685.76 -1175.8,-1546.44 -2626.03,-1546.44z"></path>
  <path fill="#1e7dac" fill-rule="nonzero" d="m26928.29 2139.51-435.21 0c-73.57 0-133.83-59.68-133.83-134.66l0 0c0-73.56 60.26-133.25 133.83-133.25l435.21 0c73.56 0 133.83 59.69 133.83 133.25l0 0c0 74.98-60.27 134.66-133.83 134.66zM30665.11 11662.71c-250.15-83.27-2911.55-340.38-2911.55-340.38l-1068.21 3380.1-1075.57-3380.1c0 0-2654.07 257.11-2904.22 340.38 296.39 279.61 335.96 989.36 300.12 1820.62-44.28 1022.8-19.97 9946.06-19.97 9946.06l7403.02 0c0 0-15.69-9163.69-32.76-10186.79-13.88-832.05 12.5-1300.28 309.14-1579.89z"></path>
  <polygon fill="#0f5070" fill-rule="nonzero" points="26685.35 14702.43 25557.71 10883.13 25671.68 12878.09"></polygon>
  <polygon fill="#155f84" fill-rule="nonzero" points="24551.14 13432.92 25671.68 12878.09 25557.71 10883.13 24693.44 11416.59"></polygon>
  <polygon fill="#0f5070" fill-rule="nonzero" points="26685.35 14702.43 27812.96 10883.13 27698.85 12878.09"></polygon>
  <polygon fill="#155f84" fill-rule="nonzero" points="28819.53 13432.92 27698.85 12878.09 27812.96 10883.13 28677.12 11416.59"></polygon>
  <polygon fill="#155f84" fill-rule="nonzero" points="29676.59 15809.09 28495.82 16072.57 27314.87 15809.09 27314.87 15142.61 29676.59 15142.61"></polygon>
  <path fill="#fff" fill-rule="nonzero" d="M28619.64 15731.61c0,68.6 -55.4,123.97 -123.82,123.97 -68.6,0 -123.97,-55.37 -123.97,-123.97 0,-68.41 55.37,-123.96 123.97,-123.96 68.42,0 123.82,55.55 123.82,123.96z"></path>
  <polygon fill="#fff" fill-rule="nonzero" points="25936.43 16257.89 23574.87 16257.89 23574.87 14971.75 25936.43 14971.75"></polygon>
  <polygon fill="#bdbdbd" fill-rule="nonzero" points="24637.35 14972.84 24637.35 14804.48 24547.7 14972.84"></polygon>
  <polygon fill="#d9d9d9" fill-rule="nonzero" points="24637.35 15141.38 24873.73 15141.38 24873.73 14804.37 24637.35 14804.37"></polygon>
  <polygon fill="#d9d9d9" fill-rule="nonzero" points="24547.7 15544.37 25715.89 15544.37 25715.89 15435.7 24547.7 15435.7"></polygon>
  <polygon fill="#d9d9d9" fill-rule="nonzero" points="24547.7 15901.28 25715.89 15901.28 25715.89 15792.6 24547.7 15792.6"></polygon>
  <polygon fill="#d9d9d9" fill-rule="nonzero" points="23741.85 16044.53 24455.15 16044.53 24455.15 15296.55 23741.85 15296.55"></polygon>
  <polygon fill="#0a4f6f" fill-rule="nonzero" points="23073.02 42680.52 25891.31 42680.52 25816.34 44201.27 23005.98 44201.27"></polygon>
  <polygon fill="#0a4f6f" fill-rule="nonzero" points="27516.86 42680.52 30310.31 42680.52 30394.85 44201.27 27584.48 44201.27"></polygon>
  <path fill="#0a4f6f" fill-rule="nonzero" d="M30518.24 26709.2c-36.09-4.27-908.15-117.41-1421.64-957.14-397.71-649.81-358.68-1354.16-356.76-1384.02l259.07 0c-.58 6.52-46.24 674.38 308.99 1254.8 449.49 734.35 1194.39 836.22 1202.15 837.19l8.19 249.17zM22890.2 26709.2c36.09-4.27 908.01-117.41 1421.64-957.14 397.7-649.81 358.71-1354.16 356.76-1384.02l-259.03 0c.4 6.52 46.09 674.38-309 1254.8-449.49 734.35-1194.53 836.22-1202.33 837.19l-8.04 249.17zM26911.62 27128.04c-197.13 0-532.51-31.38-779.18-218.22-284.43-215.44-247.39-1853.09-219.2-2541.78l243.77 2.1c-41.09 1011.28-3.19 2207.88 127.56 2344.06 198.79 150.35 491.7 168 651.22 165.76l0-2509.82 247.9 0 0 2737.06-109.51 13.05c-7.35.72-69.68 7.79-162.56 7.79z"></path>
  <polygon fill="#d6b792" fill-rule="nonzero" points="26290.4 24462.73 26509.64 24462.73 26509.64 23336.73 26290.4 23336.73"></polygon>
  <polygon fill="#d6b792" fill-rule="nonzero" points="26477.82 24462.73 27135.32 24462.73 27135.32 24370.18 26477.82 24370.18"></polygon>
  <polygon fill="#9d764b" fill-rule="nonzero" points="26353.85 23946.88 26732.35 23946.88 26732.35 23841.58 26353.85 23841.58"></polygon>
  <polygon fill="#d6b792" fill-rule="nonzero" points="26477.82 23429.39 27135.32 23429.39 27135.32 23336.8 26477.82 23336.8"></polygon>
  <polygon fill="#bdbdbd" fill-rule="nonzero" points="30453.16 15546.98 30087.92 15405.11 29608.17 15639.32 29627.88 15933.2 30105.57 16559.14 30924.17 16159.47"></polygon>
  <path fill="#132e42" fill-rule="nonzero" d="M30401.52 20944.18l-1782.02 -3649.75c-85.23,-174.77 -12.76,-385.49 162.02,-470.87l3082.73 -1505.05c174.63,-85.38 385.35,-12.76 470.87,161.98l937 1919.5 -225.69 323.13 -1511.18 2162.77 -57.62 -100.34 -706.02 555.12 104.66 171.59 -474.75 431.92z"></path>
  <polygon fill="#e7f6fd" fill-rule="nonzero" points="30644.56 20723.05 28887.69 17124.66 32036.23 15587.39 33065.38 17695.95 33046.43 17723.12 31535.25 19885.89 31477.63 19785.55 30771.61 20340.67 30876.27 20512.26"></polygon>
  <polygon fill="#d9d9d9" fill-rule="nonzero" points="30942.62 16150.45 30103.75 16560.08 29889.41 16812.73 30030.88 17102.88 31396.28 16436.15 31254.7 16146.28"></polygon>
  <polygon fill="#d9d9d9" fill-rule="nonzero" points="30442.47 15061.4 29960.07 15296.84 29864.55 15710.67 30105.67 16558.99 30928.88 16157.23 30679.97 15293.25"></polygon>
  <polygon fill="#a5dff9" fill-rule="nonzero" points="32184.48 16796.93 29750.33 17985.48 29689.38 17860.54 32123.42 16671.98"></polygon>
  <polygon fill="#a5dff9" fill-rule="nonzero" points="32471.41 17384.66 30037.11 18573.11 29976.31 18448.31 32410.49 17259.86"></polygon>
  <polygon fill="#a5dff9" fill-rule="nonzero" points="32741.85 17938.56 30307.66 19126.97 30246.71 19002.31 32680.9 17813.75"></polygon>
  <polygon fill="#a5dff9" fill-rule="nonzero" points="32207.06 18924.4 30593.36 19712.24 30532.41 19587.29 32371.14 18689.62"></polygon>
  <polygon fill="#a5dff9" fill-rule="nonzero" points="31032.38 20135.64 30844.74 20227.25 30783.82 20102.3 31694.87 19657.45 31535.25 19885.89 31477.63 19785.55"></polygon>
  <polygon fill="#ff5956" fill-rule="nonzero" points="31535.25 16720.57 29873.17 17531.97 29812.22 17407.17 31474.15 16595.77"></polygon>
  <path fill="#1e7dac" fill-rule="nonzero" d="M16838.01 18822.68l-186.73 -1015.99 3964.39 0 1086.81 -4817.68c105.09,-951.35 767.11,-1401.09 1081.11,-1315.17l838.03 540.84c314.43,85.78 -252.07,2218.18 -311.35,2579.94l-1244.51 4685.09 -5227.75 -657.03z"></path>
  <path fill="#815932" fill-rule="nonzero" d="M16838.01 18822.68c0,0 -1219.25,-122.01 -1591.15,-431.84 -372.02,-309.98 -433.95,-584.15 -433.95,-584.15l1838.37 0 186.73 1015.99z"></path>
  <polygon fill="#155f84" fill-rule="nonzero" points="16651.28 17806.69 17561.24 17806.69 17767.4 19098.38 16838.01 19010.79"></polygon>
  <polygon fill="#cf9e5f" fill-rule="nonzero" points="12788.54 17810.42 20571.57 17810.42 20571.57 12792.75 12788.54 12792.75"></polygon>
  <polygon fill="#9d764b" fill-rule="nonzero" points="15636.12 16238.87 15870.8 16238.87 15870.8 14575.93 15636.12 14575.93"></polygon>
  <polygon fill="#9d764b" fill-rule="nonzero" points="15144.85 14941.74 15753.42 13888.14 16361.85 14941.74"></polygon>
  <polygon fill="#9d764b" fill-rule="nonzero" points="17241.27 16238.87 17476.01 16238.87 17476.01 14575.93 17241.27 14575.93"></polygon>
  <polygon fill="#9d764b" fill-rule="nonzero" points="16750.28 14941.74 17358.71 13888.14 17967.14 14941.74"></polygon>
  <polygon fill="#9d764b" fill-rule="nonzero" points="15144.85 16596.32 17967.14 16596.32 17967.14 16420.42 15144.85 16420.42"></polygon>
  <polygon fill="#d6b792" fill-rule="nonzero" points="11744.49 12799.09 19527.42 12799.09 19527.42 11650.21 11744.49 11650.21"></polygon>
  <polygon fill="#cf9e5f" fill-rule="nonzero" points="13302.86 11655.5 21085.89 11655.5 21085.89 10506.62 13302.86 10506.62"></polygon>
</svg>
