<svg xmlns="http://www.w3.org/2000/svg" xmlns:xlink="http://www.w3.org/1999/xlink" width="32" height="32" id="shopping">
  <defs>
    <linearGradient id="a">
      <stop offset="0" stop-color="#24f3d2"></stop>
      <stop offset=".394" stop-color="#0674f0"></stop>
      <stop offset=".507" stop-color="#6961b5"></stop>
      <stop offset=".813" stop-color="#f34660"></stop>
      <stop offset="1" stop-color="#ee078d"></stop>
    </linearGradient>
    <linearGradient xlink:href="#a" id="b" x1="868.253" x2="937.656" y1="521.354" y2="588.736" gradientTransform="translate(-676.331 -104.46)scale(1.02524)" gradientUnits="userSpaceOnUse"></linearGradient>
  </defs>
  <g transform="translate(-208.314 -424.22)">
    <rect width="32" height="32" x="208.314" y="424.219" fill="url(#b)" rx="6.763" ry="6.763"></rect>
    <path fill="#fff" d="M224.564 430.095c-.69 0-1.276.52-1.75 1.469-.302.646-.515 1.465-.688 2.5l-2.25-.063-1.25.407h-1.25v14.187l2.5 1.688v.062h.032l11.687-.875-.844-15.063-2.593-.124c.043.43.125.931.125 1.406.13.085.187.214.187.344 0 .215-.222.375-.437.375-.216 0-.438-.16-.438-.375 0-.129.039-.227.125-.313-.043-.517-.07-1.006-.156-1.438l-.531-.03c-.173-1.078-.417-1.98-.719-2.626-.259-.517-.542-.866-.844-1.125h.063c.517 0 1.026.396 1.5 1.344.43.905.789 2.29.875 4.188.043.173.293.173.25 0-.086-1.897-.432-3.365-.906-4.313-.475-.948-1.073-1.469-1.72-1.469-.129 0-.257-.011-.343.032a1.226 1.226 0 0 0-.625-.157v-.031zm0 .281c.086 0 .195-.011.281.032-.388.258-.73.709-1.031 1.312-.474.948-.84 2.353-.969 4.25 0 .173.281.173.281 0 .13-1.854.476-3.239.907-4.188.345-.69.706-1.077 1.094-1.25.301.216.647.628.906 1.188.302.647.577 1.497.75 2.531l-3.281-.125c-.087.475-.176.99-.22 1.594a.411.411 0 0 1 .126.313c0 .215-.16.375-.375.375-.259 0-.438-.16-.438-.375 0-.129.039-.29.125-.375.043-.561.133-1.058.219-1.532l-.563-.062c.173-.992.386-1.74.688-2.344.431-.905.983-1.344 1.5-1.344z"></path>
  </g>
</svg>
